<svg width="275" height="182" viewBox="0 0 275 182" fill="none" xmlns="http://www.w3.org/2000/svg">
<path d="M82.7877 93.8341C83.6728 91.8804 85.5276 90.5503 87.9731 90.5503C90.4185 90.5503 92.2313 91.6725 92.9902 93.8341H82.7877ZM98.808 96.3285C98.808 90.342 94.3809 85.5615 87.931 85.5615C81.86 85.5615 76.9696 90.3835 76.9696 96.3703C76.9696 102.356 81.5232 107.179 88.0998 107.179C92.6546 107.179 95.9306 105.012 97.7738 101.907L93.1927 99.2128C92.2209 101.051 90.3553 102.19 88.1419 102.19C85.1064 102.19 83.2095 100.693 82.5347 98.407H98.808V96.3285ZM216.393 96.3285C216.393 93.2523 214.116 90.7579 210.997 90.7579C207.793 90.7579 205.347 93.1276 205.347 96.3285C205.347 99.5294 207.793 101.941 210.997 101.941C214.116 101.941 216.393 99.405 216.393 96.3285ZM199.698 96.3703C199.698 89.0125 205.179 85.5615 209.943 85.5615C212.683 85.5615 214.833 86.5593 216.224 88.0141V76.4159H222V106.763H216.224V104.435C214.833 106.057 212.599 107.179 209.859 107.179C205.389 107.179 199.698 103.687 199.698 96.3703ZM195.455 82.8137C197.363 82.8137 198.91 81.2885 198.91 79.4069C198.91 77.5252 197.363 76 195.455 76C193.547 76 192.001 77.5252 192.001 79.4069C192.001 81.2885 193.547 82.8137 195.455 82.8137ZM192.568 85.9775H198.343V106.763H192.568V91.5065L190.471 91.5063L192.568 85.9775ZM177.182 85.9775H182.915V89.3863C183.969 87.2246 185.866 85.9775 188.733 85.9775H191.052L188.958 91.5063H187.384C184.306 91.5063 182.957 93.0861 182.957 96.9521V106.763H177.182V85.9775ZM144.689 91.5895C144.689 82.9425 151.308 76 160.414 76C164.969 76 168.8 77.6173 171.573 80.1947C172.702 81.2433 173.655 82.4513 174.411 83.774L169.268 86.8502C167.371 83.3996 164.462 81.612 160.457 81.612C154.849 81.612 150.507 86.1437 150.507 91.5895C150.507 97.1601 154.765 101.566 160.667 101.566C165.136 101.566 168.298 99.0723 169.394 95.206H159.74V89.6772H175.718V92.0051C175.718 100.153 169.816 107.179 160.667 107.179C151.055 107.179 144.689 99.9871 144.689 91.5895ZM137.727 96.3285C137.727 93.2523 135.451 90.7579 132.331 90.7579C129.127 90.7579 126.682 93.1276 126.682 96.3285C126.682 99.5294 129.127 101.941 132.331 101.941C135.451 101.941 137.727 99.405 137.727 96.3285ZM121.032 96.3703C121.032 89.0125 126.513 85.5615 131.277 85.5615C134.017 85.5615 136.167 86.5593 137.559 88.0141V76.4159H143.334V106.763H137.559V104.435C136.167 106.057 133.933 107.179 131.193 107.179C126.724 107.179 121.032 103.687 121.032 96.3703ZM100.158 85.9775H105.892V88.3053C107.241 86.6008 109.307 85.5615 111.71 85.5615C116.684 85.5615 119.678 88.721 119.678 94.0836V106.763H113.818V94.8319C113.818 92.0466 112.511 90.4253 109.939 90.4253C107.747 90.4253 105.934 91.9219 105.934 95.4137V106.763H100.158V85.9775ZM53 101.733L58.3545 97.5754C59.872 100.153 62.2751 101.65 65.015 101.65C68.0087 101.65 69.6109 99.7377 69.6109 97.6586C69.6109 95.1646 66.5327 94.3751 63.2446 93.3767C59.1134 92.1298 54.5178 90.5503 54.5178 84.73C54.5178 79.8663 58.8184 76 64.7623 76C69.7794 76 72.6461 77.8708 75.1336 80.4069L70.2851 84.0234C69.0206 82.153 67.2078 81.1549 64.8044 81.1549C62.0642 81.1549 60.5891 82.6101 60.5891 84.5223C60.5891 86.8502 63.5399 87.6406 66.8281 88.721C71.0022 90.0511 75.7237 91.8804 75.7237 97.7007C75.7237 102.523 71.8449 107.179 65.0573 107.179C59.4928 107.179 55.7828 104.851 53 101.733Z" fill="#BBC4D2"/>
</svg>
