<svg width="275" height="182" viewBox="0 0 275 182" fill="none" xmlns="http://www.w3.org/2000/svg">
<g clipPath="url(#clip0_2_181)">
<path d="M226.113 97.8909L231.356 101.385C229.654 103.891 225.584 108.19 218.548 108.19C209.809 108.19 203.301 101.431 203.301 92.8331C203.301 83.6832 209.878 77.4759 217.812 77.4759C225.791 77.4759 229.7 83.8211 230.965 87.2466L231.655 88.9938L211.097 97.5001C212.661 100.581 215.098 102.144 218.548 102.144C221.997 102.144 224.388 100.443 226.113 97.8909ZM209.993 92.3503L223.722 86.6488C222.963 84.7407 220.709 83.3843 218.019 83.3843C214.592 83.3843 209.832 86.4189 209.993 92.3503Z" fill="#BBC4D2"/>
<path d="M193.39 61.8198H200.013V106.788H193.39V61.8198Z" fill="#BBC4D2"/>
<path d="M182.95 78.6713H189.343V105.983C189.343 117.317 182.651 121.984 174.741 121.984C167.29 121.984 162.806 116.972 161.127 112.903L166.991 110.466C168.049 112.972 170.602 115.938 174.741 115.938C179.823 115.938 182.95 112.788 182.95 106.903V104.696H182.72C181.203 106.535 178.305 108.19 174.626 108.19C166.945 108.19 159.909 101.5 159.909 92.8791C159.909 84.2119 166.945 77.4529 174.626 77.4529C178.282 77.4529 181.203 79.0852 182.72 80.8784H182.95V78.6713ZM183.41 92.8791C183.41 87.4535 179.8 83.4992 175.201 83.4992C170.556 83.4992 166.646 87.4535 166.646 92.8791C166.646 98.2357 170.556 102.121 175.201 102.121C179.8 102.144 183.41 98.2357 183.41 92.8791Z" fill="#BBC4D2"/>
<path d="M123.553 92.7641C123.553 101.615 116.654 108.121 108.191 108.121C99.729 108.121 92.8303 101.592 92.8303 92.7641C92.8303 83.8671 99.729 77.3839 108.191 77.3839C116.654 77.3839 123.553 83.8671 123.553 92.7641ZM116.838 92.7641C116.838 87.2466 112.837 83.4532 108.191 83.4532C103.546 83.4532 99.5451 87.2466 99.5451 92.7641C99.5451 98.2357 103.546 102.075 108.191 102.075C112.837 102.075 116.838 98.2357 116.838 92.7641Z" fill="#BBC4D2"/>
<path d="M157.103 92.8331C157.103 101.684 150.204 108.19 141.742 108.19C133.28 108.19 126.381 101.684 126.381 92.8331C126.381 83.936 133.28 77.4759 141.742 77.4759C150.204 77.4759 157.103 83.9131 157.103 92.8331ZM150.365 92.8331C150.365 87.3155 146.364 83.5222 141.719 83.5222C137.074 83.5222 133.073 87.3155 133.073 92.8331C133.073 98.3047 137.074 102.144 141.719 102.144C146.387 102.144 150.365 98.2817 150.365 92.8331Z" fill="#BBC4D2"/>
<path d="M67.5811 101.454C57.9459 101.454 50.4034 93.6837 50.4034 84.051C50.4034 74.4182 57.9459 66.6477 67.5811 66.6477C72.7781 66.6477 76.5724 68.6938 79.3779 71.3146L84 66.6936C80.0908 62.9463 74.8707 60.0956 67.5811 60.0956C54.3816 60.0956 43.2747 70.8548 43.2747 84.051C43.2747 97.2472 54.3816 108.006 67.5811 108.006C74.7098 108.006 80.0908 105.661 84.299 101.293C88.6221 96.9713 89.9559 90.902 89.9559 85.9821C89.9559 84.4418 89.7719 82.8555 89.565 81.683H67.5811V88.0742H83.2412C82.7812 92.0744 81.5165 94.8102 79.6538 96.6724C77.4003 98.9484 73.8359 101.454 67.5811 101.454Z" fill="#BBC4D2"/>
</g>
<defs>
<clipPath id="clip0_2_181">
<rect width="189" height="62" fill="white" transform="translate(43 60)"/>
</clipPath>
</defs>
</svg>
