<svg width="193" height="28" viewBox="0 0 193 28" fill="none" xmlns="http://www.w3.org/2000/svg">
<path d="M24.31 18.0486C22.0704 23.7304 15.6388 26.5247 9.9454 24.2897C4.25198 22.0547 1.452 15.6361 3.69158 9.95421C5.93157 4.27193 12.3628 1.47763 18.0562 3.71307C20.9882 4.86413 23.2906 7.20675 24.3868 10.1551H27.5133C25.3855 2.72237 17.6231 -1.58142 10.1753 0.542094C2.7279 2.66561 -1.58463 10.4123 0.543197 17.8449C2.67102 25.2776 10.4334 29.5814 17.8812 27.4579C22.4678 26.1501 26.0739 22.6056 27.4536 18.0486H24.31Z" fill="black"/>
<path d="M18.2758 18.0414C16.0374 20.4007 12.3059 20.5027 9.94187 18.2684C7.5778 16.0346 7.47558 12.3107 9.71438 9.95139C11.9528 7.59211 15.6842 7.4901 18.0483 9.72435C18.1955 9.86367 18.3355 10.0101 18.4679 10.1637H21.977C19.8524 5.7774 14.5674 3.94086 10.1722 6.0608C5.7769 8.18113 3.93663 13.4554 6.06088 17.8417C8.18552 22.2281 13.4705 24.0646 17.8657 21.9447C19.5915 21.1123 20.9994 19.7422 21.8772 18.0418H18.2762L18.2758 18.0414Z" fill="black"/>
<path d="M51.4468 10.7183C52.1718 8.5892 53.7719 6.86975 55.8456 5.99058C58.3015 5.02528 61.0327 5.02528 63.4891 5.99058C65.5624 6.87015 67.1624 8.5896 67.8879 10.7183C68.6229 12.8438 68.6229 15.1538 67.8879 17.2793C67.5311 18.3113 66.968 19.2603 66.233 20.0693C65.4673 20.9004 64.5315 21.5573 63.4891 21.9959C61.0299 22.9449 58.3047 22.9449 55.8456 21.9959C54.8028 21.5577 53.8669 20.9004 53.1009 20.0693C52.3659 19.2607 51.8031 18.3121 51.4468 17.2801C50.7118 15.1546 50.7118 12.8446 51.4468 10.7191M53.3395 16.414C53.5893 17.2015 53.9958 17.9303 54.5343 18.5574C55.1082 19.2147 55.8213 19.7363 56.6219 20.0851C58.576 20.8564 60.7507 20.8564 62.7051 20.0851C63.5058 19.7359 64.2185 19.2143 64.7928 18.5574C65.3313 17.9303 65.7374 17.2015 65.9876 16.414C66.4943 14.8434 66.4943 13.1538 65.9876 11.5832C65.7378 10.7957 65.3313 10.0665 64.7928 9.4394C64.2185 8.7825 63.5054 8.26056 62.7051 7.91166C60.7511 7.14045 58.5764 7.14045 56.6219 7.91166C55.8213 8.26056 55.1082 8.78211 54.5343 9.4394C53.9954 10.0673 53.5889 10.7973 53.3395 11.5855C52.8328 13.1561 52.8328 14.8458 53.3395 16.4164" fill="black"/>
<path d="M78.5954 5.59961C81.1989 5.59961 83.203 6.2581 84.6074 7.57547C86.0117 8.89284 86.7141 10.9005 86.7137 13.5983C86.7324 14.8645 86.5729 16.1267 86.2396 17.3488C85.9644 18.3649 85.4629 19.306 84.7728 20.1018C84.0804 20.8675 83.211 21.4529 82.2405 21.8074C81.0716 22.2237 79.8363 22.423 78.5954 22.3956H72.7961V5.59961H78.5954ZM78.7847 20.5154C79.0372 20.5154 79.3526 20.4959 79.7317 20.457C80.1437 20.4102 80.549 20.3154 80.9392 20.1752C81.3874 20.0149 81.8126 19.797 82.2051 19.5279C82.6498 19.2183 83.0312 18.8269 83.3291 18.3748C83.695 17.8132 83.9702 17.1976 84.1452 16.551C84.3751 15.6881 84.4829 14.797 84.4646 13.9043C84.4753 12.9978 84.3763 12.0932 84.1687 11.2104C83.9977 10.473 83.666 9.78233 83.1978 9.18656C82.7365 8.62135 82.1375 8.18394 81.4582 7.91642C80.6186 7.60405 79.7269 7.456 78.8312 7.481H75.0441V20.5182L78.7847 20.5154Z" fill="black"/>
<path d="M103.428 5.59961V7.48179H94.0062V12.8227H103.497V14.7049H94.0062V20.5186H103.497V22.4008H91.7599V5.59961H103.428Z" fill="black"/>
<path d="M119.164 7.89192C118.316 7.32195 117.309 7.03736 116.288 7.08022C115.819 7.07903 115.351 7.12587 114.892 7.21914C114.461 7.30329 114.048 7.46285 113.673 7.68989C113.319 7.90819 113.026 8.21184 112.82 8.57264C112.594 8.99535 112.484 9.47007 112.501 9.94915C112.481 10.4135 112.647 10.8668 112.963 11.2082C113.312 11.5567 113.731 11.8254 114.194 11.9965C114.758 12.2155 115.34 12.3846 115.934 12.5021C116.58 12.6355 117.239 12.7808 117.91 12.9375C118.581 13.0943 119.24 13.2797 119.886 13.4932C120.506 13.6917 121.092 13.9814 121.626 14.3522C122.134 14.7086 122.555 15.175 122.857 15.7168C123.185 16.3562 123.344 17.0691 123.318 17.7871C123.341 18.5928 123.132 19.3887 122.715 20.0789C122.321 20.7056 121.791 21.2363 121.165 21.6316C120.513 22.0401 119.797 22.3346 119.047 22.5025C118.282 22.6807 117.5 22.7712 116.715 22.7728C115.808 22.7779 114.904 22.6593 114.029 22.4199C113.226 22.2056 112.47 21.8424 111.802 21.349C111.159 20.866 110.639 20.2369 110.287 19.5141C109.898 18.6869 109.708 17.7803 109.73 16.8666H111.861C111.816 18.0796 112.38 19.2347 113.363 19.9487C113.837 20.2897 114.371 20.5373 114.938 20.6786C115.541 20.8362 116.162 20.9152 116.784 20.914C117.296 20.914 117.807 20.8676 118.31 20.7751C118.795 20.6905 119.263 20.5278 119.695 20.2932C120.591 19.8197 121.128 18.8679 121.068 17.8577C121.091 17.3469 120.927 16.8452 120.606 16.4467C120.268 16.0637 119.847 15.762 119.375 15.564C118.816 15.3206 118.233 15.1345 117.636 15.0083C116.986 14.8666 116.327 14.7213 115.659 14.5728C114.991 14.4244 114.332 14.2513 113.683 14.0549C113.071 13.8747 112.486 13.6135 111.943 13.2785C111.439 12.9657 111.017 12.5371 110.712 12.0282C110.386 11.4431 110.226 10.7799 110.251 10.1107C110.232 9.34464 110.411 8.58613 110.772 7.90978C111.11 7.30091 111.584 6.77817 112.157 6.38204C112.754 5.97203 113.419 5.66918 114.121 5.48739C114.859 5.29092 115.619 5.19248 116.382 5.19367C117.196 5.18692 118.008 5.28973 118.796 5.4993C119.504 5.68744 120.169 6.01569 120.749 6.46381C121.311 6.90796 121.764 7.47555 122.071 8.12213C122.413 8.87271 122.595 9.68639 122.604 10.5112H120.473C120.442 9.48674 119.962 8.52739 119.16 7.88716" fill="black"/>
<path d="M135.749 5.59983C137.162 5.49703 138.558 5.96778 139.619 6.9057C140.54 7.89442 141.014 9.21655 140.932 10.5637C141.012 11.9144 140.538 13.2397 139.619 14.234C138.562 15.1783 137.162 15.6462 135.749 15.5279H130.589V22.3982H128.34V5.59983H135.749H135.749ZM134.991 13.643C135.99 13.7426 136.991 13.466 137.795 12.8666C138.416 12.2653 138.74 11.4222 138.684 10.5609C138.741 9.70357 138.416 8.86449 137.795 8.26911C136.987 7.67651 135.991 7.39668 134.991 7.48162H130.589V13.6434H134.991V13.643Z" fill="black"/>
<path d="M151.31 5.59961L157.913 22.3976H155.428L153.582 17.3389H146.434L144.54 22.3976H142.244L148.824 5.59961H151.31H151.31ZM152.872 15.4567L150.056 7.6227H150.008L147.145 15.4567H152.872Z" fill="black"/>
<path d="M192.929 5.59961V7.48179H183.509V12.8227H193V14.7049H183.509V20.5186H193V22.4008H181.26V5.59961H192.929H192.929Z" fill="black"/>
<path d="M46.817 16.8197C46.5676 17.452 46.2152 18.039 45.773 18.5558C45.1987 19.2127 44.4855 19.7343 43.6853 20.0836C41.7313 20.8548 39.5565 20.8548 37.6021 20.0836C36.8015 19.7343 36.0888 19.2127 35.5145 18.5558C34.9755 17.9287 34.5695 17.1995 34.3197 16.4121C33.813 14.8415 33.813 13.1518 34.3197 11.5812C34.5683 10.7953 34.9724 10.0669 35.5085 9.4402C36.0824 8.7829 36.7955 8.26095 37.5961 7.91246C39.5502 7.14085 41.7253 7.14085 43.6793 7.91246C44.48 8.26135 45.1931 8.7833 45.767 9.4402C46.2451 10.0006 46.6181 10.6425 46.8687 11.3347H49.0415C48.9846 11.1263 48.9261 10.9223 48.8549 10.7195C48.1315 8.59198 46.535 6.87214 44.4645 5.99058C42.0085 5.02528 39.2773 5.02528 36.821 5.99058C34.7472 6.87015 33.1472 8.5896 32.4221 10.7187C31.6868 12.8438 31.6868 15.1538 32.4221 17.2789C32.7785 18.3113 33.3413 19.2603 34.0763 20.0689C34.8423 20.9 35.7781 21.5569 36.821 21.9947C39.2801 22.9441 42.0053 22.9441 44.4645 21.9947C45.5069 21.5565 46.4427 20.8996 47.2084 20.0689C47.9426 19.2603 48.5049 18.3121 48.8617 17.2813C48.9146 17.1301 48.9556 16.9757 49.0009 16.8221L46.817 16.8201V16.8197Z" fill="black"/>
<path d="M175.333 16.8197C175.084 17.452 174.731 18.0387 174.289 18.5558C173.715 19.2127 173.001 19.7343 172.201 20.0836C170.247 20.8548 168.072 20.8548 166.118 20.0836C165.317 19.7343 164.605 19.2127 164.03 18.5558C163.492 17.9287 163.085 17.1996 162.836 16.4121C162.329 14.8415 162.329 13.1518 162.836 11.5812C163.085 10.7937 163.492 10.0646 164.03 9.43745C164.604 8.78015 165.317 8.2582 166.118 7.90971C168.072 7.1381 170.247 7.1381 172.201 7.90971C173.002 8.2586 173.715 8.78055 174.289 9.43745C174.767 9.9979 175.14 10.6397 175.391 11.3319H177.563C177.506 11.1236 177.448 10.9195 177.377 10.7167C176.651 8.58765 175.051 6.8682 172.978 5.98863C170.522 5.02332 167.791 5.02332 165.335 5.98863C163.26 6.8678 161.66 8.58765 160.936 10.7167C160.2 12.8418 160.2 15.1519 160.936 17.277C161.292 18.309 161.855 19.2584 162.59 20.0669C163.356 20.8981 164.292 21.5546 165.335 21.9928C167.794 22.9422 170.519 22.9422 172.978 21.9928C174.02 21.5546 174.956 20.8977 175.722 20.0669C176.457 19.258 177.02 18.309 177.377 17.277C177.43 17.1258 177.47 16.9713 177.516 16.8177L175.333 16.8197Z" fill="black"/>
</svg>
