<svg width="107" height="107" viewBox="0 0 107 107" fill="none" xmlns="http://www.w3.org/2000/svg">
<g filter="url(#filter0_b_95_685)">
<circle cx="53.016" cy="53.0159" r="43" transform="rotate(-15.67 53.016 53.0159)" fill="#001AFF" fill-opacity="0.8"/>
</g>
<path d="M77.5005 42.8838C76.9235 40.4711 74.8088 37.9644 72.1122 36.497C69.2654 34.9482 66.0337 34.6829 63.0142 35.7483C58.2904 37.4154 54.9434 37.7004 53.4928 37.7342C53.6891 35.5601 53.3737 33.4035 52.5354 31.3274C51.3568 28.4071 49.4054 26.3176 48.5383 25.6199C48.4914 25.5819 48.4413 25.5411 48.3864 25.4966C47.2281 24.5485 44.1523 22.0319 39.1958 24.6091C37.6525 25.4115 36.7092 26.4261 36.3105 27.7098C35.5199 30.2565 37.1486 33.3176 38.8736 36.5576L39.1743 37.1222C40.0031 38.6843 40.3892 40.1496 40.5432 41.3968C39.7102 42.3156 37.1892 45.3315 36.1643 49.2007C33.6616 48.5936 31.6844 48.9436 30.2807 50.2434C26.6645 53.5903 28.5085 62.072 28.6137 62.5404C30.1374 69.9876 32.7571 74.3569 36.3998 75.5264C37.6697 75.9339 39.0571 75.9328 40.4813 75.5333C41.0505 75.3737 41.6254 75.15 42.2003 74.8639C43.1179 74.4068 43.8413 73.8894 44.2696 73.5521C47.0112 74.9083 50.5322 74.9901 54.7804 73.7984C56.1039 73.4271 57.4985 72.9311 58.9613 72.3135C60.6004 73.9927 63.9036 75.4734 70.4644 73.6329C70.8115 73.5356 71.1685 73.4292 71.5349 73.3114C76.1723 71.8346 78.8753 69.7211 79.5694 67.0304C80.2256 64.4852 78.8721 62.2092 78.0993 61.1718C79.0349 60.1693 79.6307 59.0637 79.8788 57.8572C80.6558 54.0963 77.797 50.6228 76.614 49.3772C77.7667 47.5251 78.0737 45.2788 77.5001 42.8826L77.5005 42.8838ZM44.8796 72.1143C41.8577 70.5772 41.1934 67.7198 41.1653 67.5929C41.0749 67.1727 40.6602 66.9047 40.2397 66.9939C39.8189 67.082 39.5489 67.4985 39.6385 67.9201C39.6661 68.0496 40.2655 70.7293 42.8343 72.6706C41.6331 73.5092 39.2564 74.8062 36.8704 74.0366C33.8505 73.063 31.5249 68.9769 30.1439 62.221L30.1394 62.2048C29.6366 59.9722 28.869 53.6769 31.3434 51.3892C32.3481 50.4597 33.8634 50.243 35.8509 50.735C35.7166 51.6662 35.6812 52.6345 35.7852 53.6237C36.1708 57.2981 38.3877 60.4987 42.3749 63.1365C42.5725 63.2671 42.8065 63.2962 43.0171 63.2372C43.1918 63.1882 43.3496 63.079 43.4575 62.9165C43.6959 62.5563 43.5964 62.0726 43.2374 61.8338C39.6624 59.4685 37.6775 56.6545 37.3403 53.4683C37.0188 50.4273 38.2649 47.5469 39.3681 45.665C39.7785 44.9658 40.1994 44.3486 40.5795 43.8351C40.4883 44.738 40.3098 45.276 40.3049 45.2899C40.1628 45.6954 40.3761 46.1397 40.7811 46.2845C41.1873 46.4289 41.6339 46.215 41.7783 45.8088C41.8404 45.6341 43.2581 41.4838 40.557 36.3924L40.2557 35.8255C38.6883 32.8807 37.2081 30.0999 37.8051 28.1753C38.074 27.3099 38.7654 26.5981 39.9197 25.9972C43.9623 23.8948 46.2838 25.7956 47.3996 26.7081C47.4578 26.7554 47.5113 26.7991 47.5614 26.8399C48.1704 27.3292 49.9919 29.1956 51.0878 31.9145C51.9341 34.0108 52.1917 36.1524 51.8649 38.3194C51.8547 38.3585 51.8474 38.3992 51.8439 38.4401C51.8428 38.4454 51.8441 38.45 51.8431 38.4553C51.5868 40.0372 51.0201 41.6338 50.1413 43.2344C49.934 43.612 50.0723 44.0874 50.4499 44.2947C50.6371 44.3969 50.847 44.4154 51.0367 44.3622C51.2264 44.309 51.4055 44.1776 51.5102 43.986C52.3582 42.4403 52.9426 40.8711 53.2621 39.3052C54.7098 39.3009 58.3107 39.067 63.5341 37.2236C66.8633 36.0476 69.6309 36.9272 71.366 37.8719C73.656 39.1177 75.5104 41.2793 75.982 43.2498C76.4644 45.2673 76.228 47.0582 75.2788 48.5725C74.0937 50.4649 71.8115 51.8763 68.4963 52.7726C64.0599 53.9697 59.7974 53.5755 57.3714 51.7427C56.1458 50.8173 55.4893 49.5801 55.4705 48.1652C55.4473 46.3696 56.037 44.935 57.2232 43.9009C58.9511 42.3954 61.8867 41.8676 65.4918 42.4138C65.9181 42.4789 66.3162 42.185 66.3813 41.7587C66.4464 41.3323 66.1525 40.9343 65.7262 40.8692C61.6022 40.244 58.3066 40.8852 56.1978 42.7235C54.6713 44.0527 53.8809 45.9417 53.9098 48.1849C53.9341 50.0999 54.8069 51.7608 56.4305 52.9888C56.7029 53.1944 56.9934 53.385 57.2984 53.5602C55.4142 55.4428 54.9045 58.6483 56.2014 61.4431C56.5701 62.2369 57.0663 62.9513 57.67 63.5732C56.729 66.2644 56.8673 69.0086 58.0018 71.024C52.4049 73.3291 47.9933 73.6981 44.8826 72.116L44.8796 72.1143ZM78.0539 66.6506C77.4986 68.7819 75.1465 70.5224 71.0604 71.8247C65.7986 73.5004 61.9747 73.264 59.9987 71.1402C58.6118 69.6486 58.2373 67.1791 58.962 64.6509C59.6801 65.1333 60.491 65.5148 61.3762 65.7832C63.79 66.5137 66.6633 66.4178 69.9374 65.4993C70.4441 65.3572 70.9602 65.195 71.4859 65.0138C73.7499 64.2314 75.5671 63.3023 76.9346 62.2336C77.5527 63.1023 78.526 64.8372 78.0542 66.6518L78.0539 66.6506ZM78.3482 57.5478C78.1251 58.6212 77.5274 59.6088 76.5626 60.5072C76.5452 60.5208 76.5281 60.5356 76.5111 60.5504C76.5043 60.5573 76.4975 60.5642 76.4907 60.5711C75.2417 61.7064 73.4009 62.6982 70.9753 63.5359C67.3709 64.7804 64.2933 65.0335 61.8285 64.286C60.6748 63.937 59.8039 63.4126 59.1472 62.8331C59.1171 62.8016 59.0851 62.7719 59.0487 62.7446C58.3443 62.0974 57.8972 61.3892 57.6161 60.7829C56.4956 58.3679 57.0485 55.5921 58.8537 54.2733C61.602 55.262 65.1668 55.2865 68.9033 54.277C68.9797 54.2556 69.0549 54.2345 69.1301 54.2134C72.0027 53.4076 74.1853 52.2063 75.6463 50.6346C76.7321 51.8313 78.9426 54.6843 78.3475 57.5455L78.3482 57.5478Z" fill="white"/>
<defs>
<filter id="filter0_b_95_685" x="6.005" y="6.00488" width="94.022" height="94.022" filterUnits="userSpaceOnUse" color-interpolation-filters="sRGB">
<feFlood flood-opacity="0" result="BackgroundImageFix"/>
<feGaussianBlur in="BackgroundImageFix" stdDeviation="2"/>
<feComposite in2="SourceAlpha" operator="in" result="effect1_backgroundBlur_95_685"/>
<feBlend mode="normal" in="SourceGraphic" in2="effect1_backgroundBlur_95_685" result="shape"/>
</filter>
</defs>
</svg>
