<svg width="28" height="28" viewBox="0 0 28 28" fill="none" xmlns="http://www.w3.org/2000/svg">
<g id="logo">
<path id="_&#237;&#140;&#168;&#236;&#138;&#164;_1972" d="M24.7401 18.0486C22.4609 23.7304 15.9155 26.5247 10.1213 24.2897C4.3272 22.0547 1.47768 15.6361 3.75689 9.95421C6.0365 4.27193 12.5815 1.47763 18.3756 3.71307C21.3595 4.86413 23.7027 7.20675 24.8182 10.1551H28C25.8345 2.72237 17.9348 -1.58142 10.3553 0.542094C2.77615 2.66561 -1.61266 10.4123 0.552806 17.8449C2.71827 25.2776 10.618 29.5814 18.1975 27.4579C22.8652 26.1501 26.5352 22.6056 27.9393 18.0486H24.7401Z" fill="black"/>
<path id="_&#237;&#140;&#168;&#236;&#138;&#164;_1973" d="M18.599 18.0413C16.3211 20.4005 12.5236 20.5025 10.1177 18.2683C7.71181 16.0344 7.60778 12.3105 9.88618 9.95127C12.1642 7.59198 15.9616 7.48998 18.3675 9.72423C18.5173 9.86355 18.6598 10.01 18.7945 10.1636H22.3657C20.2035 5.77728 14.8251 3.94074 10.3521 6.06067C5.87905 8.18101 4.00622 13.4553 6.16805 17.8416C8.33028 22.2279 13.7087 24.0645 18.1817 21.9445C19.938 21.1122 21.3708 19.742 22.2642 18.0416H18.5995L18.599 18.0413Z" fill="black"/>
</g>
</svg>
